<svg width="24" height="24" viewBox="0 0 24 24" fill="none" xmlns="http://www.w3.org/2000/svg">
<path d="M19.8775 9.9173C18.9959 6.10438 20.0944 4.58101 22.3422 1.46399C22.3951 1.39067 22.4486 1.31647 22.5027 1.24133L19.5448 4.21899L19.5467 4.20963L16.1911 7.59689L16.1901 7.5958L9.30179 14.5673L7.82601 15.8588C5.32564 13.4543 5.75692 9.73211 7.89051 7.58426C9.46845 5.99577 12.0538 5.34794 14.3117 6.30029L16.7362 5.17367C16.2996 4.85561 15.74 4.51472 15.0977 4.2733C12.1941 3.07009 8.71854 3.66849 6.35963 6.04316C4.09048 8.32748 3.37516 11.8423 4.60099 14.8402C5.51685 17.0802 4.01597 18.6665 2.50342 20.2652C1.96711 20.832 1.42934 21.4004 0.997314 22L7.82601 15.8588L9.30179 14.5673L16.452 9.25385C16.8023 8.99351 17.3036 9.09522 17.4705 9.50009C18.3499 11.633 17.9561 14.1986 16.2085 15.9578C14.4911 17.6867 12.0267 18.1046 9.80178 17.2248L7.37181 18.3563C10.8567 20.7549 15.0876 20.1605 17.733 17.4973C19.83 15.3863 20.4798 12.5069 19.8726 9.91233L19.8775 9.9173Z" fill="currentColor"/>
</svg>
