<svg width="24" height="24" viewBox="0 0 24 24" fill="none" xmlns="http://www.w3.org/2000/svg">
<path d="M10.2371 19.9551H9.71419V19.0111H10.2371C10.605 19.0111 10.7889 19.1644 10.7889 19.471C10.7889 19.626 10.7421 19.7453 10.6485 19.8293C10.5582 19.9131 10.421 19.9551 10.2371 19.9551Z" fill="currentColor"/>
<path d="M14.2879 20.9523C14.1427 21.1492 13.9377 21.2477 13.6731 21.2477C13.4117 21.2477 13.2067 21.1476 13.0583 20.9475C12.9099 20.7474 12.8356 20.4731 12.8356 20.1245C12.8356 19.7728 12.9099 19.4984 13.0583 19.3016C13.2067 19.1015 13.4117 19.0015 13.6731 19.0015C13.9377 19.0015 14.1427 19.1015 14.2879 19.3016C14.4364 19.4984 14.5106 19.7728 14.5106 20.1245C14.5106 20.4763 14.4364 20.7523 14.2879 20.9523Z" fill="currentColor"/>
<path fill-rule="evenodd" clip-rule="evenodd" d="M0 4C0 1.79086 1.79086 0 4 0H20C22.2091 0 24 1.79086 24 4V20C24 22.2091 22.2091 24 20 24H4C1.79086 24 0 22.2091 0 20V4ZM18.4616 8.10506C17.7396 4.98252 18.6393 3.73498 20.4801 1.18234L20.6115 1L18.1892 3.43851L18.1908 3.43084L15.4427 6.20479L15.4419 6.2039L9.80083 11.9131L15.6564 7.56173C15.9433 7.34853 16.3538 7.43183 16.4905 7.76339C17.2106 9.51006 16.8881 11.6111 15.457 13.0519C14.0506 14.4677 12.0323 14.8099 10.2103 14.0894L8.2203 15.0161C11.0742 16.9804 14.539 16.4935 16.7055 14.3126C18.4228 12.5838 18.9549 10.2257 18.4576 8.10098L18.4616 8.10506ZM8.59226 12.9708C6.54462 11.0017 6.89781 7.95339 8.64508 6.19445C9.93731 4.89358 12.0545 4.36304 13.9036 5.14296L15.8892 4.22033C15.5316 3.95986 15.0733 3.68069 14.5473 3.48298C12.1695 2.49763 9.32318 2.98769 7.39139 4.93238C5.5331 6.80309 4.9473 9.68153 5.95118 12.1366C6.70121 13.971 5.47208 15.2701 4.2334 16.5793C3.7942 17.0435 3.3538 17.5089 3 18L8.59226 12.9708ZM5.72129 21.7076C5.95691 21.8528 6.23284 21.9254 6.5491 21.9254C6.81054 21.9254 7.03483 21.8754 7.22199 21.7753C7.41239 21.672 7.55122 21.5284 7.63835 21.3445L7.67224 21.8431H8.29184V19.9116H6.65562V20.5312H7.49309V20.6038C7.49309 20.7071 7.46403 20.8103 7.40597 20.9136C7.34784 21.0137 7.26238 21.0976 7.14936 21.1654C7.03642 21.2299 6.90249 21.2622 6.74758 21.2622C6.47005 21.2622 6.25866 21.1621 6.11341 20.9621C5.96816 20.7619 5.8956 20.4812 5.8956 20.1197C5.8956 19.7615 5.96982 19.4807 6.11824 19.2774C6.26674 19.0741 6.4733 18.9724 6.73791 18.9724C6.92831 18.9724 7.07998 19.0256 7.193 19.1321C7.30911 19.2354 7.3834 19.3726 7.41564 19.5437L8.28701 19.3839C8.22246 19.0676 8.05788 18.8126 7.79326 18.619C7.52858 18.4221 7.17843 18.3237 6.74274 18.3237C6.38776 18.3237 6.07951 18.3995 5.81814 18.5512C5.55671 18.6997 5.35498 18.9111 5.21298 19.1854C5.07097 19.4565 5 19.7711 5 20.1294C5 20.4941 5.0613 20.812 5.18391 21.0831C5.30983 21.351 5.48891 21.5591 5.72129 21.7076ZM9.71419 20.5409H10.1935L10.8422 21.8431H11.7813L11.0358 20.4199C11.2488 20.3424 11.4118 20.2197 11.5247 20.052C11.6409 19.8841 11.699 19.6905 11.699 19.471C11.699 19.1354 11.5925 18.8739 11.3795 18.6868C11.1665 18.4996 10.8454 18.406 10.4161 18.406H8.84765V21.8431H9.71419V20.5409ZM12.7581 21.7076C13.0196 21.8528 13.3246 21.9254 13.6731 21.9254C14.0216 21.9254 14.3266 21.8528 14.5881 21.7076C14.8494 21.5591 15.0511 21.3493 15.1932 21.0783C15.3352 20.8072 15.4062 20.4892 15.4062 20.1245C15.4062 19.7599 15.3352 19.442 15.1932 19.1709C15.0511 18.8998 14.8494 18.6916 14.5881 18.5464C14.3266 18.3979 14.0216 18.3237 13.6731 18.3237C13.3246 18.3237 13.0196 18.3979 12.7581 18.5464C12.4967 18.6916 12.295 18.8998 12.153 19.1709C12.011 19.442 11.94 19.7599 11.94 20.1245C11.94 20.4892 12.011 20.8072 12.153 21.0783C12.295 21.3493 12.4967 21.5591 12.7581 21.7076ZM17.1362 20.4053L18.0075 21.8431H19L17.7316 19.805L18.937 18.406H17.9446L16.744 19.8583V18.406H15.8775V21.8431H16.744V20.8652L17.1362 20.4053Z" fill="currentColor"/>
</svg>
