<svg width="32" height="32" viewBox="0 0 32 32" fill="none" xmlns="http://www.w3.org/2000/svg">
<g clip-path="url(#clip0_3337_4836)">
<path d="M16.4235 14.6956L24.7496 3.5H20.7267L14.415 11.9956L16.4235 14.6956Z" fill-rule="evenodd"/>
<path d="M7.25098 10.4758L15.5526 21.6375H19.5755L11.2739 10.4758H7.25098Z" fill-rule="evenodd"/>
<path d="M7.25 21.6376L10.3945 17.4058L12.407 20.1122L11.2736 21.6376H7.25Z" fill-rule="evenodd"/>
<path d="M24.7501 21.6376H21.3848V10.7303L24.7501 6.20581V21.6376Z" fill-rule="evenodd"/>
<path d="M6 26.8921C6 28.4746 6.81389 29.4785 8.15242 29.4785C8.8856 29.4785 9.4237 29.1717 9.66584 28.6419L9.71293 29.36H10.5739V26.5783H8.3004V27.4707H9.46406V27.5752C9.46406 27.9935 9.10756 28.5234 8.42821 28.5234C7.64795 28.5234 7.24437 27.903 7.24437 26.8782C7.24437 25.8534 7.67485 25.2259 8.41475 25.2259C8.97303 25.2259 9.26899 25.5814 9.35643 26.0485L10.5672 25.8185C10.399 24.947 9.6793 24.2917 8.42148 24.2917C6.92823 24.2917 6 25.3374 6 26.8921Z" fill-rule="evenodd"/>
<path fill-rule="evenodd" clip-rule="evenodd" d="M13.4402 27.4846L14.3416 29.3599H15.6465L14.6106 27.3103C15.2159 27.0803 15.5321 26.5644 15.5321 25.944C15.5321 25.0097 14.9738 24.4102 13.7496 24.4102H11.5703V29.3599H12.7743V27.4846H13.4402ZM12.7743 26.641V25.2816H13.5008C14.0322 25.2816 14.2676 25.5257 14.2676 25.944C14.2676 26.3762 14.0255 26.641 13.5008 26.641H12.7743Z" fill-rule="evenodd"/>
<path fill-rule="evenodd" clip-rule="evenodd" d="M18.4994 29.4785C17.033 29.4785 16.0913 28.4746 16.0913 26.8851C16.0913 25.2887 17.033 24.2917 18.4994 24.2917C19.9657 24.2917 20.9074 25.2887 20.9074 26.8851C20.9074 28.4816 19.9657 29.4785 18.4994 29.4785ZM18.4994 28.5025C19.2325 28.5025 19.663 27.8959 19.663 26.8851C19.663 25.8743 19.2325 25.2678 18.4994 25.2678C17.7729 25.2678 17.3357 25.8743 17.3357 26.8851C17.3357 27.889 17.7729 28.5025 18.4994 28.5025Z" fill-rule="evenodd"/>
<path d="M23.5355 27.2893L24.7462 29.3599H26.1251L24.3627 26.4249L26.0377 24.4102H24.6587L22.9906 26.5016V24.4102H21.7866V29.3599H22.9906V27.9517L23.5355 27.2893Z" fill-rule="evenodd"/>
</g>
<defs>
<clipPath id="clip0_3337_4836">
<rect width="25" height="27" fill="white" transform="translate(3.5 3.5)"/>
</clipPath>
</defs>
</svg>
