<svg width="32" height="32" viewBox="0 0 32 32" fill="none" xmlns="http://www.w3.org/2000/svg">
<path d="M13.1066 20.0362L22.8585 12.7561C23.3366 12.3993 24.0199 12.5385 24.2477 13.0929C25.4467 16.0165 24.911 19.53 22.5256 21.9424C20.1402 24.3547 16.8211 24.8837 13.7875 23.6788L10.4734 25.2305C15.2267 28.5161 20.9987 27.7036 24.6057 24.0535C27.4667 21.1601 28.3527 17.2163 27.5243 13.6599L27.5317 13.6674C26.3303 8.4428 27.8271 6.35446 30.8933 2.08412C30.9659 1.98287 31.0385 1.88162 31.1111 1.77783L27.0762 5.85832V5.84566L13.1041 20.0388"/>
<path d="M11.0942 21.8054C7.68254 18.5096 8.27077 13.409 11.1818 10.4676C13.3345 8.29071 16.8613 7.40222 19.9401 8.70838L23.2465 7.16427C22.6508 6.72888 21.8874 6.26059 21.0113 5.93151C17.0515 4.28363 12.3107 5.10377 9.09177 8.35652C5.99549 11.4878 5.0218 16.3023 6.69384 20.4107C7.94286 23.4812 5.89536 25.653 3.83285 27.8452C3.10195 28.6222 2.36855 29.3994 1.77783 30.2221L11.0917 21.8079"/>
</svg>
