<svg width="24" height="24" viewBox="0 0 24 24" fill="none" xmlns="http://www.w3.org/2000/svg">
<path d="M12 3C8.68629 3 6 5.68629 6 9C6 11.0856 7.06352 12.9236 8.68199 14H15.318C16.9365 12.9236 18 11.0856 18 9C18 5.68629 15.3137 3 12 3ZM14 16H10V17H14V16ZM8 15.9296C7.95853 15.9056 7.9173 15.8812 7.87631 15.8565C5.55568 14.4582 4 11.9113 4 9C4 4.58172 7.58172 1 12 1C16.4183 1 20 4.58172 20 9C20 11.9113 18.4443 14.4582 16.1237 15.8565C16.0827 15.8812 16.0415 15.9056 16 15.9296V17.5C16 18.3284 15.3284 19 14.5 19H9.5C8.67157 19 8 18.3284 8 17.5V15.9296ZM8 21C8 20.4477 8.44772 20 9 20H15C15.5523 20 16 20.4477 16 21C16 21.5523 15.5523 22 15 22H9C8.44772 22 8 21.5523 8 21Z"/>
</svg>
