<svg height="24" width="24" xmlns="http://www.w3.org/2000/svg"><path clip-rule="evenodd" d="M6.305 3.476C7.99 2.35 9.973 1.75 12 1.75c2.718 0 5.325 1.081 7.246 3.003 1.922 1.922 3.002 4.529 3.002 7.247 0 2.027-.601 4.01-1.728 5.695-1.126 1.686-2.727 3-4.6 3.775-1.873.776-3.934.979-5.922.583s-3.815-1.372-5.249-2.806-2.409-3.26-2.804-5.249c-.396-1.988-.192-4.049.584-5.922.776-1.873 2.09-3.473 3.776-4.6zm6.856 2.325v1.41c.492.067.947.195 1.365.382.659.286 1.166.71 1.52 1.274l-1.455 1.34c-.26-.425-.607-.755-1.04-.989-.433-.234-.91-.35-1.43-.35-.425 0-.763.082-1.014.246-.243.156-.364.369-.364.637 0 .269.1.481.299.637.2.156.542.29 1.027.403l1.378.286c.867.19 1.508.503 1.924.936.425.433.637 1.04.637 1.82 0 .598-.156 1.122-.468 1.573-.303.45-.745.802-1.326 1.053-.316.132-.667.228-1.053.289V18.2h-2v-1.44c-.581-.08-1.11-.237-1.588-.47-.72-.364-1.257-.862-1.612-1.495l1.69-1.287c.269.477.615.85 1.04 1.118.433.269.94.403 1.52.403.46 0 .833-.082 1.119-.247.286-.173.429-.42.429-.74 0-.313-.095-.542-.286-.69-.19-.147-.524-.269-1.001-.364l-1.274-.273c-1.742-.364-2.613-1.3-2.613-2.808 0-.563.147-1.053.442-1.469.303-.416.732-.732 1.287-.949.26-.106.543-.187.847-.243V5.801z" fill-rule="evenodd"/></svg>