<svg width="24" height="24" viewBox="0 0 24 24" fill="none" xmlns="http://www.w3.org/2000/svg">
<path fill-rule="evenodd" clip-rule="evenodd" d="M4 0C1.79086 0 0 1.79086 0 4V20C0 22.2091 1.79086 24 4 24H20C22.2091 24 24 22.2091 24 20V4C24 1.79086 22.2091 0 20 0H4ZM22.3422 1.46399C20.0944 4.58101 18.9959 6.10438 19.8775 9.9173L19.8726 9.91233C20.4798 12.5069 19.83 15.3863 17.733 17.4973C15.0876 20.1605 10.8567 20.7549 7.37181 18.3563L9.80177 17.2248C12.0267 18.1046 14.4911 17.6867 16.2085 15.9578C17.9561 14.1986 18.3499 11.633 17.4705 9.50009C17.3036 9.09522 16.8023 8.99351 16.452 9.25385L9.30179 14.5673L16.1901 7.5958L16.1911 7.59689L19.5467 4.20963L19.5448 4.21899L22.5027 1.24133L22.3422 1.46399ZM7.89051 7.58426C5.75692 9.73211 5.32564 13.4543 7.82601 15.8588L0.997314 22C1.42934 21.4004 1.96711 20.832 2.50342 20.2652C4.01596 18.6665 5.51685 17.0802 4.60099 14.8402C3.37516 11.8423 4.09048 8.32748 6.35963 6.04316C8.71854 3.66849 12.1941 3.07009 15.0977 4.2733C15.74 4.51472 16.2996 4.85561 16.7362 5.17367L14.3117 6.30029C12.0538 5.34794 9.46845 5.99577 7.89051 7.58426Z" fill="currentColor"/>
</svg>
