<svg width="16" height="17" viewBox="0 0 16 17" fill="none" xmlns="http://www.w3.org/2000/svg">
<path d="M4.66635 12.5L10.3797 12.5C10.749 12.5 11.0463 12.202 11.0463 11.8333C11.0463 11.4647 10.749 11.1667 10.3797 11.1667L6.27568 11.1667L12.471 4.97133C12.731 4.71133 12.731 4.28933 12.471 4.02867C12.341 3.89867 12.171 3.83333 11.9997 3.83333C11.8283 3.83333 11.6583 3.89867 11.5283 4.02867L5.33302 10.224L5.33302 6.11933C5.33302 5.75 5.03502 5.45267 4.66635 5.45267C4.29768 5.45267 3.99968 5.75 3.99968 6.11933L3.99968 11.8333C3.99968 12.202 4.29768 12.5 4.66635 12.5Z" fill="#F4212E"/>
</svg>
