<svg width="25" height="25" viewBox="0 0 25 25" fill="none" xmlns="http://www.w3.org/2000/svg">
<path fill-rule="evenodd" clip-rule="evenodd" d="M0.833496 9C0.833496 5.13401 3.9675 2 7.8335 2H17.1668C21.0328 2 24.1668 5.13401 24.1668 9V16C24.1668 19.866 21.0328 23 17.1668 23H2.00016C1.35583 23 0.833496 22.4777 0.833496 21.8333V9ZM9.00016 9C8.35583 9 7.8335 9.52233 7.8335 10.1667C7.8335 10.811 8.35583 11.3333 9.00016 11.3333H16.0002C16.6445 11.3333 17.1668 10.811 17.1668 10.1667C17.1668 9.52233 16.6445 9 16.0002 9H9.00016ZM9.00016 13.6667C8.35583 13.6667 7.8335 14.189 7.8335 14.8333C7.8335 15.4777 8.35583 16 9.00016 16H12.5002C13.1445 16 13.6668 15.4777 13.6668 14.8333C13.6668 14.189 13.1445 13.6667 12.5002 13.6667H9.00016Z"/>
</svg>
