<svg width="200" height="200" viewBox="0 0 200 200" xmlns="http://www.w3.org/2000/svg">
<path d="M77.1021 127.324L143.593 78.0394C146.852 75.6232 151.511 76.5657 153.064 80.3187C161.239 100.112 157.586 123.897 141.322 140.229C125.058 156.56 102.429 160.141 81.7441 151.984L59.1484 162.49C91.5573 184.733 130.912 179.232 155.505 154.52C175.012 134.933 181.054 108.234 175.404 84.1573L175.456 84.2087C167.264 48.8384 177.469 34.7006 198.376 5.79084C198.871 5.10537 199.366 4.4199 199.86 3.71729L172.35 31.3417V31.256L77.0851 127.341"/>
<path d="M63.381 139.303C40.1197 116.991 44.1302 82.4607 63.9784 62.5478C78.6554 47.8101 102.701 41.7952 123.693 50.6378L146.238 40.1844C142.176 37.2368 136.971 34.0665 130.998 31.8387C103.999 20.6827 71.6752 26.235 49.728 48.2557C28.617 69.4539 21.9782 102.048 33.3785 129.861C41.8946 150.648 27.9344 165.351 13.8718 180.191C8.88841 185.452 3.888 190.714 -0.139648 196.283L63.364 139.32"/>
</svg>
