<svg width="15" height="13" viewBox="0 0 15 13" fill="none" xmlns="http://www.w3.org/2000/svg">
<path fill-rule="evenodd" clip-rule="evenodd" d="M6.87006 2.02854C6.87106 2.00817 6.87157 1.98766 6.87157 1.96703C6.87157 1.29097 6.32352 0.74292 5.64746 0.74292C4.9714 0.74292 4.42335 1.29097 4.42335 1.96703C4.42335 2.64309 4.9714 3.19115 5.64746 3.19115C5.77137 3.19115 5.89099 3.17273 6.00371 3.1385C6.19643 3.75162 6.36929 4.49472 6.24696 5.32426C3.94729 4.45721 2.98428 5.34296 2.11224 7.30975C2.01083 7.28255 1.90423 7.26804 1.79424 7.26804C1.11818 7.26804 0.570129 7.8161 0.570129 8.49216C0.570129 9.16822 1.11818 9.71627 1.79424 9.71627C2.43532 9.71627 2.9613 9.22346 3.01401 8.59601C4.38905 8.65957 4.75071 9.08862 4.84583 10.1208C5.62317 9.73294 6.70238 9.47031 8.14187 9.47031C9.95966 9.47031 11.2513 9.88402 12.1105 10.4265C12.3397 10.0421 12.7328 9.84409 13.1254 9.64631C14.1135 9.14856 15.0986 8.65236 13.4596 5.19066C13.9725 5.04476 14.3481 4.57281 14.3481 4.01314C14.3481 3.33708 13.8 2.78903 13.1239 2.78903C12.4479 2.78903 11.8998 3.33708 11.8998 4.01314C11.8998 4.53485 12.2262 4.98033 12.6859 5.15655C12.2982 6.15972 11.7777 6.63213 10.6006 6.41267C10.2741 4.07662 8.93834 2.14824 6.87006 2.02854ZM11.7437 11.5829C11.1538 11.1177 10.0566 10.6265 8.14187 10.6265C6.36032 10.6265 5.3916 11.046 4.87978 11.4599C4.87978 11.4623 4.87978 11.4647 4.87978 11.4671C6.13939 12.3302 7.48651 12.4256 8.39833 12.4256C9.26468 12.4256 10.6297 12.2878 11.7437 11.5829Z" fill="#536471"/>
</svg>
