<svg width="25" height="25" viewBox="0 0 25 25" fill="none" xmlns="http://www.w3.org/2000/svg">
<path fill-rule="evenodd" clip-rule="evenodd" d="M0.833496 9C0.833496 5.13401 3.9675 2 7.8335 2H17.1668C21.0328 2 24.1668 5.13401 24.1668 9V16C24.1668 19.866 21.0328 23 17.1668 23H2.00016C1.35583 23 0.833496 22.4777 0.833496 21.8333V9ZM7.8335 4.33333C5.25617 4.33333 3.16683 6.42267 3.16683 9V20.6667H17.1668C19.7442 20.6667 21.8335 18.5773 21.8335 16V9C21.8335 6.42267 19.7442 4.33333 17.1668 4.33333H7.8335ZM7.8335 10.1667C7.8335 9.52234 8.35583 9 9.00016 9H16.0002C16.6445 9 17.1668 9.52234 17.1668 10.1667C17.1668 10.811 16.6445 11.3333 16.0002 11.3333H9.00016C8.35583 11.3333 7.8335 10.811 7.8335 10.1667ZM7.8335 14.8333C7.8335 14.189 8.35583 13.6667 9.00016 13.6667H12.5002C13.1445 13.6667 13.6668 14.189 13.6668 14.8333C13.6668 15.4777 13.1445 16 12.5002 16H9.00016C8.35583 16 7.8335 15.4777 7.8335 14.8333Z"/>
</svg>
