<svg width="24" height="24" viewBox="0 0 24 24" xmlns="http://www.w3.org/2000/svg">
<path d="M19.9981 7.74707L13.8994 12.7373C12.8633 13.5851 11.4018 13.6385 10.3125 12.8965L10.1006 12.7373L4.00098 7.74707C4.00032 7.88274 4 8.03298 4 8.2002V15.7998C4 16.3764 4.00127 16.7489 4.02442 17.0322C4.04662 17.3038 4.08419 17.4047 4.10938 17.4541L4.19141 17.5879C4.28366 17.7148 4.40484 17.8187 4.5459 17.8906L4.59473 17.9121C4.65668 17.9344 4.76435 17.959 4.96778 17.9756C5.25112 17.9987 5.62365 18 6.2002 18H17.7998C18.3764 18 18.7489 17.9987 19.0322 17.9756C19.3038 17.9534 19.4047 17.9158 19.4541 17.8906L19.5879 17.8086C19.7148 17.7163 19.8187 17.5952 19.8906 17.4541L19.9121 17.4053C19.9344 17.3433 19.959 17.2357 19.9756 17.0322C19.9987 16.7489 20 16.3764 20 15.7998V8.2002C20 8.03297 19.9987 7.88274 19.9981 7.74707ZM6.2002 6C5.67567 6 5.32011 6.00199 5.04688 6.01954L11.3672 11.1895L11.4375 11.2432C11.8005 11.4903 12.2875 11.4719 12.6328 11.1895L18.9522 6.01954C18.6791 6.00205 18.3237 6 17.7998 6H6.2002ZM22 15.7998C22 16.3434 22.0011 16.8116 21.9697 17.1953C21.9415 17.5412 21.8835 17.8856 21.7402 18.2197L21.6729 18.3623C21.4211 18.8562 21.0383 19.2694 20.5684 19.5576L20.3623 19.6729C19.984 19.8656 19.5906 19.9374 19.1953 19.9697C18.8116 20.0011 18.3434 20 17.7998 20H6.2002C5.65665 20 5.18836 20.0011 4.80469 19.9697C4.45882 19.9415 4.11438 19.8835 3.78028 19.7402L3.6377 19.6729C3.14381 19.4211 2.73058 19.0383 2.44239 18.5684L2.32715 18.3623C2.1344 17.984 2.06259 17.5906 2.03028 17.1953C1.99893 16.8116 2 16.3434 2 15.7998V8.2002C2 7.65665 1.99893 7.18836 2.03028 6.80469C2.06259 6.40943 2.1344 6.016 2.32715 5.6377L2.44239 5.43165C2.73058 4.96167 3.14381 4.57888 3.6377 4.32715L3.78028 4.25977C4.11438 4.11652 4.45882 4.05855 4.80469 4.03028C5.18836 3.99893 5.65665 4 6.2002 4H17.7998C18.3434 4 18.8116 3.99893 19.1953 4.03028C19.5906 4.06259 19.984 4.1344 20.3623 4.32715L20.5684 4.44239C21.0383 4.73058 21.4211 5.14381 21.6729 5.6377L21.7402 5.78028C21.8835 6.11438 21.9415 6.45882 21.9697 6.80469C22.0011 7.18836 22 7.65665 22 8.2002V15.7998Z"/>
</svg>
