<svg width="32" height="32" viewBox="0 0 32 32" fill="none" xmlns="http://www.w3.org/2000/svg">
<g clip-path="url(#clip0_3337_4835)">
<path fill-rule="evenodd" clip-rule="evenodd" d="M0 7C0 3.13401 3.13401 0 7 0H25C28.866 0 32 3.13401 32 7V25C32 28.866 28.866 32 25 32H7C3.13401 32 0 28.866 0 25V7ZM16.4237 14.6956L24.7499 3.5H20.7269L14.4153 11.9956L16.4237 14.6956ZM15.5528 21.6375L7.25122 10.4758H11.2742L19.5757 21.6375H15.5528ZM7.25008 21.6376L10.3946 17.4057L12.4071 20.1122L11.2737 21.6376H7.25008ZM21.3845 21.6377H24.7498V6.20589L21.3845 10.7304V21.6377ZM6 26.8921C6 28.4746 6.81389 29.4785 8.15242 29.4785C8.8856 29.4785 9.4237 29.1717 9.66584 28.6419L9.71293 29.36H10.5739V26.5783H8.3004V27.4707H9.46406V27.5752C9.46406 27.9935 9.10756 28.5234 8.42821 28.5234C7.64795 28.5234 7.24437 27.903 7.24437 26.8782C7.24437 25.8534 7.67485 25.2259 8.41475 25.2259C8.97303 25.2259 9.26899 25.5814 9.35643 26.0485L10.5672 25.8185C10.399 24.947 9.6793 24.2917 8.42148 24.2917C6.92823 24.2917 6 25.3374 6 26.8921ZM14.3416 29.3599L13.4402 27.4846H12.7743V29.3599H11.5703V24.4102H13.7496C14.9738 24.4102 15.5321 25.0097 15.5321 25.944C15.5321 26.5644 15.2159 27.0803 14.6106 27.3103L15.6465 29.3599H14.3416ZM12.7743 25.2816V26.641H13.5008C14.0255 26.641 14.2676 26.3762 14.2676 25.944C14.2676 25.5257 14.0322 25.2816 13.5008 25.2816H12.7743ZM18.4994 29.4785C17.033 29.4785 16.0913 28.4746 16.0913 26.8851C16.0913 25.2887 17.033 24.2917 18.4994 24.2917C19.9657 24.2917 20.9074 25.2887 20.9074 26.8851C20.9074 28.4816 19.9657 29.4785 18.4994 29.4785ZM18.4994 28.5025C19.2325 28.5025 19.663 27.8959 19.663 26.8851C19.663 25.8743 19.2325 25.2678 18.4994 25.2678C17.7729 25.2678 17.3357 25.8743 17.3357 26.8851C17.3357 27.889 17.7729 28.5025 18.4994 28.5025ZM24.7462 29.3599L23.5355 27.2893L22.9906 27.9517V29.3599H21.7866V24.4102H22.9906V26.5016L24.6587 24.4102H26.0377L24.3627 26.4249L26.1251 29.3599H24.7462Z" fill-rule="evenodd"/>
</g>
<defs>
<clipPath id="clip0_3337_4835">
<rect width="32" height="32" fill="white"/>
</clipPath>
</defs>
</svg>
