<svg width="24" height="24" viewBox="0 0 24 24" fill="none" xmlns="http://www.w3.org/2000/svg">
<g clip-path="url(#clip0_4_20)">
<path fill-rule="evenodd" clip-rule="evenodd" d="M24 0H0V24H24V0ZM19 2L12.339 10.9565L10.7323 8.79646L15.7816 2H19ZM11.6424 16.5101L5.00114 7.58073H8.21949L14.8607 16.5101H11.6424ZM5 16.51L7.51562 13.1245L9.12562 15.2897L8.2189 16.51H5ZM16.3077 16.5101H19V4.16467L16.3077 7.78424V16.5101ZM4.99999 20.2008C4.99999 21.3016 5.56618 22 6.49734 22C7.00737 22 7.38171 21.7866 7.55016 21.418L7.58291 21.9176H8.18185V19.9825H6.60028V20.6033H7.40978V20.676C7.40978 20.967 7.16178 21.3356 6.68918 21.3356C6.1464 21.3356 5.86564 20.904 5.86564 20.1911C5.86564 19.4782 6.16511 19.0417 6.67982 19.0417C7.0682 19.0417 7.27408 19.289 7.33491 19.614L8.17717 19.4539C8.06019 18.8477 7.55951 18.3918 6.6845 18.3918C5.64572 18.3918 4.99999 19.1193 4.99999 20.2008ZM10.8029 21.9176L10.1759 20.613H9.71263V21.9176H8.87505V18.4743H10.3911C11.2427 18.4743 11.6311 18.8914 11.6311 19.5412C11.6311 19.9728 11.4112 20.3317 10.99 20.4917L11.7106 21.9176H10.8029ZM9.71263 19.0805V20.0262H10.218C10.583 20.0262 10.7514 19.8419 10.7514 19.5412C10.7514 19.2502 10.5876 19.0805 10.218 19.0805H9.71263ZM13.6952 22C12.6751 22 12.02 21.3016 12.02 20.1959C12.02 19.0853 12.6751 18.3918 13.6952 18.3918C14.7152 18.3918 15.3703 19.0853 15.3703 20.1959C15.3703 21.3065 14.7152 22 13.6952 22ZM13.6952 21.321C14.2052 21.321 14.5047 20.8991 14.5047 20.1959C14.5047 19.4927 14.2052 19.0708 13.6952 19.0708C13.1898 19.0708 12.8857 19.4927 12.8857 20.1959C12.8857 20.8943 13.1898 21.321 13.6952 21.321ZM18.0407 21.9176L17.1985 20.4772L16.8195 20.9379V21.9176H15.9819V18.4743H16.8195V19.9292L17.9799 18.4743H18.9391L17.774 19.8758L19 21.9176H18.0407Z"/>
</g>
<defs>
<clipPath id="clip0_4_20">
<rect width="24" height="24" rx="5"/>
</clipPath>
</defs>
</svg>
