<svg width="24" height="24" viewBox="0 0 24 24" fill="none" xmlns="http://www.w3.org/2000/svg">
<path d="M12.4069 10.7478L20.4 0H16.538L10.4788 8.15575L12.4069 10.7478Z"/>
<path d="M3.60138 6.69688L11.5709 17.4121H15.4329L7.46341 6.69688H3.60138Z"/>
<path d="M3.60001 17.412L6.61876 13.3494L8.55075 15.9476L7.46269 17.412H3.60001Z"/>
<path d="M20.4 17.4121H17.1693V6.94109L20.4 2.59761V17.4121Z"/>
<path d="M3.60001 21.8409C3.60001 23.162 4.27943 24 5.39682 24C6.00886 24 6.45806 23.7439 6.6602 23.3016L6.69951 23.9011H7.41823V21.579H5.52035V22.3239H6.49175V22.4112C6.49175 22.7604 6.19415 23.2027 5.62704 23.2027C4.97569 23.2027 4.63879 22.6848 4.63879 21.8293C4.63879 20.9738 4.99815 20.45 5.61581 20.45C6.08185 20.45 6.32891 20.7468 6.40191 21.1367L7.41262 20.9447C7.27224 20.2172 6.67143 19.6702 5.62142 19.6702C4.37488 19.6702 3.60001 20.5431 3.60001 21.8409Z"/>
<path fill-rule="evenodd" clip-rule="evenodd" d="M9.81106 22.3356L10.5635 23.9011H11.6528L10.7881 22.1901C11.2934 21.9981 11.5573 21.5674 11.5573 21.0495C11.5573 20.2696 11.0913 19.7691 10.0693 19.7691H8.25008V23.9011H9.25517V22.3356H9.81106ZM9.25517 21.6314V20.4966H9.86159C10.3052 20.4966 10.5017 20.7003 10.5017 21.0495C10.5017 21.4103 10.2996 21.6314 9.86159 21.6314H9.25517Z"/>
<path fill-rule="evenodd" clip-rule="evenodd" d="M14.0342 24C12.8101 24 12.024 23.162 12.024 21.8351C12.024 20.5024 12.8101 19.6702 14.0342 19.6702C15.2583 19.6702 16.0444 20.5024 16.0444 21.8351C16.0444 23.1678 15.2583 24 14.0342 24ZM14.0342 23.1853C14.6462 23.1853 15.0056 22.6789 15.0056 21.8351C15.0056 20.9913 14.6462 20.485 14.0342 20.485C13.4278 20.485 13.0628 20.9913 13.0628 21.8351C13.0628 22.6731 13.4278 23.1853 14.0342 23.1853Z"/>
<path d="M18.2382 22.1726L19.2489 23.9011H20.4L18.9288 21.451L20.327 19.7691H19.1759L17.7834 21.515V19.7691H16.7783V23.9011H17.7834V22.7255L18.2382 22.1726Z"/>
</svg>
